<?xml version="1.0" encoding="UTF-8"?>
<svg version="1.1" xmlns="http://www.w3.org/2000/svg" width="1024" height="1536">
<path d="M0 0 C337.92 0 675.84 0 1024 0 C1024 506.88 1024 1013.76 1024 1536 C686.08 1536 348.16 1536 0 1536 C0 1029.12 0 522.24 0 0 Z " fill="#FEFEFE" transform="translate(0,0)"/>
<path d="M0 0 C45.98046523 -0.09153875 91.96092083 -0.16203021 137.94145921 -0.20426132 C143.36885056 -0.20926419 148.79624173 -0.21444148 154.22363281 -0.21972656 C155.30413688 -0.2207758 156.38464094 -0.22182505 157.49788755 -0.22290608 C174.99739804 -0.24031528 192.49685601 -0.27185582 209.99633533 -0.30861118 C227.9500077 -0.34600626 245.90365255 -0.36823282 263.85736227 -0.37635398 C274.93737884 -0.38184472 286.01724697 -0.399192 297.09721786 -0.43166587 C304.6933129 -0.45279603 312.2893311 -0.45920343 319.8854534 -0.45400551 C324.26922315 -0.45144141 328.65273336 -0.45539514 333.03645706 -0.4768219 C337.05119771 -0.49630184 341.06550452 -0.4972608 345.08026522 -0.48359558 C346.53128153 -0.48190692 347.98232502 -0.48696911 349.43328792 -0.49953273 C358.57695859 -0.57409114 365.09203608 -0.22392714 372.2421875 5.9296875 C376.83123901 11.39702638 379.34854437 15.31290417 378.72265625 22.63671875 C378.10885505 28.84751146 377.01940525 34.95363467 375.86402893 41.08105469 C375.71339241 41.88088933 375.56275589 42.68072397 375.40755463 43.50479603 C375.2524366 44.32821334 375.09731857 45.15163065 374.9375 46 C372.36370855 59.7023229 369.80061715 73.40662599 367.25 87.11328125 C366.99579946 88.47919623 366.99579946 88.47919623 366.73646355 89.87270546 C363.15221934 109.13825643 359.60891259 128.41124799 356.07223511 147.68557739 C350.89501265 175.89856135 345.69491131 204.10658113 340.38752747 232.29541016 C340.22483871 233.15956543 340.06214996 234.0237207 339.89453125 234.9140625 C339.73655563 235.75308105 339.57858002 236.59209961 339.41581726 237.45654297 C337.63089865 246.94625539 335.87506723 256.44130719 334.125 265.9375 C333.98488495 266.69660675 333.8447699 267.4557135 333.70040894 268.23782349 C333.3021011 270.39668831 332.90473205 272.55572328 332.5078125 274.71484375 C332.38295975 275.39251297 332.25810699 276.07018219 332.12947083 276.76838684 C331.45602656 280.44246983 330.80423409 284.11937541 330.17480469 287.80126953 C330.03944305 288.58796524 329.90408142 289.37466095 329.76461792 290.18519592 C329.50468406 291.70171628 329.24813509 293.2188217 328.99539185 294.73655701 C328.11096933 299.88903067 328.11096933 299.88903067 327 301 C325.54982598 301.10777342 324.09447888 301.14681698 322.64035034 301.15821838 C321.22562439 301.17290161 321.22562439 301.17290161 319.78231812 301.18788147 C318.73766388 301.19363693 317.69300964 301.1993924 316.61669922 301.20532227 C315.52162048 301.21522186 314.42654175 301.22512146 313.29827881 301.23532104 C309.63377089 301.26717564 305.96925108 301.29185118 302.3046875 301.31640625 C299.72827861 301.3370193 297.15187276 301.35801677 294.57546997 301.37937927 C289.1292701 301.42351269 283.68306083 301.46448598 278.23681641 301.50268555 C272.74460101 301.54122306 267.25241987 301.58264234 261.76025391 301.62768555 C261.09649994 301.63311359 260.43274597 301.63854163 259.74887824 301.64413416 C258.41220056 301.65507408 257.07552293 301.66601958 255.73884535 301.67697072 C255.0786592 301.68237898 254.41847304 301.68778723 253.73828125 301.69335938 C252.74763003 301.70148781 252.74763003 301.70148781 251.73696566 301.70978045 C244.45307666 301.76914883 237.16923137 301.82189141 229.88519287 301.85903931 C228.59047184 301.86565771 227.29575081 301.87227612 225.96179581 301.87909508 C223.38424887 301.89223996 220.80670117 301.90523332 218.22915268 301.91806984 C210.93117372 301.95975965 203.63571148 302.04557675 196.33882713 302.17825031 C191.97346345 302.25460335 187.60798774 302.30844357 183.24225235 302.35850334 C181.2413803 302.38729257 179.24062743 302.426716 177.24020004 302.47778511 C166.41476124 302.75097634 158.8901511 302.8602793 150 296 C147.32288877 294.83343879 144.61941357 293.98349041 141.8125 293.1875 C141.15314453 292.98447266 140.49378906 292.78144531 139.81445312 292.57226562 C125.75673036 288.37572375 109.38651807 288.34133368 95.1875 291.9375 C94.17091309 292.18137451 94.17091309 292.18137451 93.13378906 292.43017578 C89.1419294 293.57030758 85.80705259 295.07101594 82.33959961 297.3425293 C75.75459767 301.54152933 70.1668246 304.89988623 62.17611694 303.57798767 C57.7812892 302.56253039 53.49497549 301.26959504 49.1875 299.9375 C47.20606616 299.37628331 45.22264838 298.82203527 43.23754883 298.27392578 C39.8686469 297.33973488 36.50305942 296.39736471 33.14311218 295.43139648 C21.90667434 292.20101514 10.60245616 289.25733186 -0.71875 286.33984375 C-2.63289723 285.84558571 -4.54701564 285.351216 -6.46110535 284.85673523 C-9.35056484 284.11042615 -12.24004647 283.36420362 -15.12961864 282.61833096 C-24.56402205 280.18262871 -33.99651119 277.73991663 -43.42108154 275.26640511 C-45.14284847 274.81551833 -46.86516487 274.3667242 -48.58804321 273.92010307 C-50.96351763 273.30407033 -53.33704379 272.68102723 -55.71020508 272.05615234 C-56.40957089 271.87645873 -57.10893671 271.69676512 -57.82949543 271.51162624 C-61.01130285 270.66589126 -63.22703956 269.84864029 -66 268 C-6.93 268 52.14 268 113 268 C59.90670612 253.32948459 6.78621645 239.10385895 -46.66326904 225.86058044 C-49.37314469 225.18906933 -52.08282368 224.51677435 -54.79229736 223.84364319 C-55.44239147 223.68214374 -56.09248558 223.52064428 -56.76227951 223.35425091 C-57.40436985 223.19472848 -58.04646019 223.03520605 -58.70800781 222.87084961 C-63.61686271 221.65132829 -68.52779845 220.44078259 -73.44042969 219.23657227 C-75.61138197 218.69959917 -77.78228362 218.16242128 -79.953125 217.625 C-81.42875916 217.26697548 -81.42875916 217.26697548 -82.9342041 216.90171814 C-83.82893433 216.67891678 -84.72366455 216.45611542 -85.64550781 216.2265625 C-86.80654022 215.94159912 -86.80654022 215.94159912 -87.99102783 215.65087891 C-90 215 -90 215 -93 213 C-68.3125062 212.96903026 -43.62501052 212.94890786 -18.9375 212.9375 C-17.56802774 212.93684855 -17.56802774 212.93684855 -16.17088938 212.93618393 C32.40938204 212.91369756 80.98465229 212.96849275 129.5625 213.5 C131.20325438 213.51793673 131.20325438 213.51793673 132.8771553 213.53623581 C145.58495877 213.67640013 158.29256946 213.82934484 171 214 C146.30798953 206.12660513 121.58967313 198.35369539 96.79631042 190.8053627 C94.50229443 190.10666289 92.20856488 189.40703001 89.91491699 188.7071228 C68.21109382 182.08437846 46.49184871 175.51487086 24.74951172 169.01953125 C15.53169694 166.26506466 6.31880898 163.49674494 -2.87890625 160.67578125 C-3.73348419 160.41374405 -4.58806213 160.15170685 -5.46853638 159.88172913 C-9.4174913 158.66984903 -13.36529274 157.45436354 -17.31152344 156.23364258 C-18.67251851 155.81459143 -20.03352065 155.39556324 -21.39453125 154.9765625 C-23.14020386 154.43636475 -23.14020386 154.43636475 -24.92114258 153.88525391 C-27.60710558 153.11296766 -30.25147684 152.49575655 -33 152 C-33 151.34 -33 150.68 -33 150 C-18.22917617 149.96924329 -3.45835154 149.94895069 11.3125 149.9375 C12.41092224 149.93664398 13.50934448 149.93578796 14.64105225 149.93490601 C46.39850097 149.91307098 78.14355554 150.05726752 109.89575195 150.64428711 C112.36800053 150.68998296 114.84024986 150.73563867 117.3125 150.78125 C118.4651384 150.80276627 119.61777679 150.82428253 120.80534363 150.84645081 C132.53684195 151.05197399 144.26711761 151.05074101 156 151 C127.67657886 143.0118078 99.32198651 135.1429518 70.9375 127.375 C70.17546642 127.16642113 69.41343285 126.95784225 68.62830734 126.74294281 C52.65299126 122.37032274 36.67597835 118.00391553 20.69837284 113.63966942 C14.18942086 111.86164488 7.68086113 110.0821884 1.17252254 108.30191994 C-2.66291165 107.25289021 -6.49854518 106.20460451 -10.33474731 105.15838623 C-31.93683105 99.26672084 -53.48309696 93.19561937 -75 87 C-75 86.67 -75 86.34 -75 86 C-55.60831169 85.97615901 -36.21662652 85.95877912 -16.82492638 85.94818783 C-7.81182729 85.94312953 1.20126238 85.93627164 10.21435547 85.92456055 C57.81934226 85.86392251 105.40214009 86.14760773 153 87 C149.80036161 85.87574667 146.60017993 84.75304761 143.39990234 83.63061523 C142.499608 83.31425865 141.59931366 82.99790207 140.67173767 82.67195892 C134.02644679 80.34247337 127.35773688 78.12709077 120.625 76.0625 C118.92597534 75.53765015 118.92597534 75.53765015 117.19262695 75.00219727 C94.85668095 68.13425518 72.41382519 61.60800639 50 55 C50 54.67 50 54.34 50 54 C104.78 54 159.56 54 216 54 C159.92841161 40.05998011 103.84815791 26.22513742 47.63053894 12.89153099 C45.19095438 12.31272225 42.7515255 11.73326165 40.31213379 11.15364075 C33.24085871 9.47427426 26.16791319 7.80376116 19.08789062 6.16162109 C17.90499451 5.88472946 16.72209839 5.60783783 15.50335693 5.32255554 C13.35812567 4.82055854 11.21160177 4.32403788 9.0635376 3.83430481 C7.68775543 3.51063179 7.68775543 3.51063179 6.28417969 3.18041992 C5.49710632 2.99879807 4.71003296 2.81717621 3.89910889 2.63005066 C2 2 2 2 0 0 Z " fill="#010101" transform="translate(248,530)"/>
<path d="M0 0 C13.22226848 -0.0464675 26.44451734 -0.08194225 39.66685104 -0.10362434 C45.8073898 -0.11403389 51.94787244 -0.12814122 58.08837891 -0.15087891 C64.02116696 -0.1727084 69.95390124 -0.18458988 75.88672638 -0.18975449 C78.14317928 -0.19343215 80.39962944 -0.20061345 82.65605927 -0.21146011 C118.04582182 -0.37471745 118.04582182 -0.37471745 131.125 11.3125 C136.93186927 17.67749372 140.84807666 25.51033535 145 33 C146.1599725 35.07692555 147.32014 37.1537422 148.48046875 39.23046875 C151.04104995 43.82344404 153.59212706 48.42159005 156.13671875 53.0234375 C159.7567944 59.56957617 163.40457122 66.09994837 167.0625 72.625 C167.62928467 73.63699463 168.19606934 74.64898926 168.7800293 75.69165039 C171.7845197 81.05452716 174.79540826 86.41373348 177.8125 91.76953125 C178.44019287 92.88569824 179.06788574 94.00186523 179.71459961 95.15185547 C180.90614851 97.27047948 182.09953335 99.38807248 183.29516602 101.50439453 C192.89094275 118.57841637 195.14303721 128.58611439 192.0625 148.125 C191.95629333 148.81318817 191.85008667 149.50137634 191.74066162 150.2104187 C189.13703332 167.05191271 185.97909949 183.79638597 182.86000061 200.54830933 C180.7326789 211.97589129 178.67177219 223.41260155 176.68536377 234.86550903 C175.84751694 239.69496245 175.00311151 244.52327402 174.1600647 249.3518219 C174.0298996 250.09745895 173.8997345 250.84309601 173.765625 251.61132812 C173.57419922 252.70779663 173.57419922 252.70779663 173.37890625 253.82641602 C173.00670104 255.96155968 172.63609743 258.09697697 172.265625 260.23242188 C171.60522599 264.03201438 170.92868662 267.8286293 170.25 271.625 C169.9701123 273.25187744 169.9701123 273.25187744 169.68457031 274.91162109 C168.44028587 281.77975849 167.15083508 287.71500041 161.5 292.3125 C160.9121875 292.80363281 160.324375 293.29476563 159.71875 293.80078125 C155.9234133 296.44889117 152.28242622 296.1035085 147.8125 296.0625 C146.54019531 296.05347656 145.26789063 296.04445313 143.95703125 296.03515625 C142.49330078 296.01775391 142.49330078 296.01775391 141 296 C141.01571045 295.12375977 141.0314209 294.24751953 141.04760742 293.34472656 C141.09931443 290.0346055 141.13662632 286.72492518 141.16479492 283.41455078 C141.17970701 281.99293159 141.20004409 280.57135693 141.22631836 279.14990234 C141.5387751 261.78711008 137.81757651 246.65755809 126.4375 233.125 C114.51867201 220.86305423 97.76304622 215.06678697 80.86938477 214.70751953 C53.63147541 214.50419604 29.25845366 225.04546586 9.82421875 244.140625 C8.88054366 245.09150371 7.93894561 246.04445087 7 247 C6.26394531 247.73734375 5.52789063 248.4746875 4.76953125 249.234375 C-8.20208326 263.00862434 -17.29873904 280.5039513 -22.30859375 298.65625 C-23 301 -23 301 -24 302 C-25.5223788 302.10800917 -27.04971892 302.14683468 -28.57588196 302.15821838 C-29.56755875 302.1680072 -30.55923553 302.17779602 -31.58096313 302.18788147 C-32.67999969 302.19363693 -33.77903625 302.1993924 -34.91137695 302.20532227 C-36.06360245 302.21522186 -37.21582794 302.22512146 -38.40296936 302.23532104 C-41.59277424 302.26165765 -44.78257285 302.28350638 -47.97242379 302.30332303 C-51.36902622 302.32536749 -54.76558632 302.35272918 -58.16215515 302.37937927 C-63.93042979 302.42385118 -69.69872156 302.46449226 -75.46704102 302.50268555 C-81.2584103 302.54105091 -87.0497448 302.58243487 -92.84106445 302.62768555 C-132.56135644 302.93792704 -172.27848467 303.06416965 -212 303 C-211.93005011 302.37996786 -211.86010021 301.75993572 -211.78803062 301.12111473 C-211.69695848 300.30886751 -211.60588634 299.49662029 -211.51205444 298.65975952 C-211.42147955 297.85410238 -211.33090466 297.04844524 -211.23758507 296.21837425 C-209.76753013 282.49220852 -211.25814635 270.1109597 -215.42749023 256.99438477 C-216.08683884 254.69748976 -216.53134943 252.34325284 -217 250 C-160.57 250 -104.14 250 -46 250 C-45.67 246.7 -45.34 243.4 -45 240 C-44.62658762 237.66355414 -44.22068761 235.33196741 -43.77587891 233.00805664 C-43.40818642 231.06917572 -43.40818642 231.06917572 -43.0330658 229.09112549 C-42.76428877 227.697458 -42.49545253 226.30380194 -42.2265625 224.91015625 C-41.94385241 223.42714056 -41.66156019 221.94404516 -41.37965393 220.46087646 C-40.77891036 217.30431108 -40.17559417 214.14825326 -39.57015991 210.99258423 C-38.61314614 206.00393831 -37.66196412 201.0141926 -36.7121582 196.02416992 C-36.55296811 195.18786199 -36.39377802 194.35155405 -36.22976398 193.48990345 C-35.90728825 191.79567887 -35.58483477 190.10145006 -35.26240349 188.40721703 C-34.77612457 185.8529711 -34.28930101 183.29882945 -33.80238342 180.7447052 C-30.88638202 165.44213085 -28.0296529 150.12896115 -25.1875 134.8125 C-21.84128826 116.79383469 -18.43715148 98.78777528 -14.96569824 80.79284668 C-9.7832955 53.89822948 -4.90473091 26.94635976 0 0 Z " fill="#000000" transform="translate(646,604)"/>
<path d="M0 0 C0.89090332 0.00161133 1.78180664 0.00322266 2.69970703 0.00488281 C9.24826931 0.12715141 14.5408342 0.98960623 20.25 4.375 C21.796875 5.2103125 21.796875 5.2103125 23.375 6.0625 C31.97506335 12.97994226 37.85855396 21.5013141 40.25 32.375 C41.5672266 53.3858439 36.46872112 70.67020156 22.48828125 86.8828125 C21.74964844 87.70523438 21.01101563 88.52765625 20.25 89.375 C19.62480469 90.09429688 18.99960937 90.81359375 18.35546875 91.5546875 C7.38606407 103.42473804 -8.58031519 110.47949234 -24.63670349 111.57128906 C-27.80876649 111.65411215 -30.97529196 111.67795473 -34.1484375 111.67578125 C-35.91096107 111.68431625 -35.91096107 111.68431625 -37.70909119 111.69302368 C-41.51453371 111.70513749 -45.31955867 111.69891773 -49.125 111.6875 C-50.43286469 111.68501251 -51.74072937 111.68252502 -53.08822632 111.67996216 C-74.14188646 111.6179757 -94.8548534 110.93389489 -115.75 108.375 C-116.76203491 108.25151184 -117.77406982 108.12802368 -118.81677246 108.00079346 C-164.32801316 102.41276812 -164.32801316 102.41276812 -185.75 98.375 C-185.75 98.045 -185.75 97.715 -185.75 97.375 C-176.54115254 97.35139539 -167.33231612 97.33384827 -158.12344456 97.32318783 C-153.84327152 97.31806069 -149.56311977 97.31115905 -145.28295898 97.29956055 C-122.75037489 97.24009233 -100.26775286 97.52355386 -77.75 98.375 C-87.33008003 94.89139388 -96.77046543 91.5670365 -106.75 89.375 C-106.75 89.045 -106.75 88.715 -106.75 88.375 C-100.14864971 87.60483337 -93.6672047 87.23569577 -87.0234375 87.27734375 C-85.71289902 87.27946617 -85.71289902 87.27946617 -84.37588501 87.28163147 C-81.62555297 87.28716326 -78.87530682 87.29970226 -76.125 87.3125 C-74.24349077 87.31752384 -72.36198025 87.32208519 -70.48046875 87.32617188 C-65.90361348 87.33711021 -61.32682123 87.35432638 -56.75 87.375 C-57.02714844 86.77171875 -57.30429687 86.1684375 -57.58984375 85.546875 C-57.95207031 84.74765625 -58.31429687 83.9484375 -58.6875 83.125 C-59.04714844 82.33609375 -59.40679688 81.5471875 -59.77734375 80.734375 C-65.00644378 68.05013237 -61.68370866 53.5595681 -56.75 41.375 C-47.79743194 21.40194676 -32.54337363 9.36652698 -12.87890625 1.1796875 C-8.56252943 0.06960807 -4.44169334 -0.0082852 0 0 Z " fill="#010101" transform="translate(714.75,850.625)"/>
<path d="M0 0 C9.20590856 7.32816909 14.38955513 15.22305335 17.1640625 26.72265625 C18.79023532 45.48037069 13.87737507 63.10496032 2.2265625 78.09765625 C0.89200956 79.65633259 -0.46148952 81.19904337 -1.8359375 82.72265625 C-2.43921875 83.41875 -3.0425 84.11484375 -3.6640625 84.83203125 C-15.53839796 97.70421002 -32.07196123 103.97973061 -49.28482056 104.90881348 C-53.03901678 104.98486174 -56.78802698 105.00002772 -60.54296875 104.98828125 C-61.92152474 104.98963295 -63.30008026 104.99157766 -64.67863464 104.99407959 C-67.54353451 104.9970022 -70.40830832 104.99282342 -73.27319336 104.98339844 C-76.92897104 104.97195114 -80.58445664 104.97861463 -84.24022388 104.99054337 C-87.07736894 104.99779386 -89.91444544 104.99546037 -92.75159264 104.99028778 C-94.74950224 104.98832397 -96.74741461 104.99434784 -98.74531555 105.00054932 C-104.80836921 104.96927109 -110.13007939 104.86241944 -115.8359375 102.72265625 C-115.8359375 102.39265625 -115.8359375 102.06265625 -115.8359375 101.72265625 C-106.63746896 100.62584487 -97.46198282 100.39620146 -88.2109375 100.16015625 C-86.61848056 100.1168671 -85.0260325 100.07324988 -83.43359375 100.02929688 C-79.56780032 99.92330205 -75.70191391 99.821743 -71.8359375 99.72265625 C-73.38782776 99.37226791 -73.38782776 99.37226791 -74.97106934 99.01480103 C-84.74031585 96.80895854 -94.50934356 94.60214938 -104.2781601 92.39440346 C-109.29991441 91.25952276 -114.32174412 90.12497797 -119.34375 88.99121094 C-124.19389147 87.89623081 -129.0438298 86.80035515 -133.89363098 85.70386887 C-135.7402278 85.28653709 -137.58689652 84.86952332 -139.43363953 84.4528389 C-142.0282187 83.86736052 -144.6225356 83.2807328 -147.21679688 82.69384766 C-147.9734967 82.52337418 -148.73019653 82.3529007 -149.50982666 82.17726135 C-154.3029234 81.09136005 -159.07180378 79.92948332 -163.8359375 78.72265625 C-163.8359375 78.39265625 -163.8359375 78.06265625 -163.8359375 77.72265625 C-136.4459375 77.72265625 -109.0559375 77.72265625 -80.8359375 77.72265625 C-81.8259375 75.74265625 -82.8159375 73.76265625 -83.8359375 71.72265625 C-88.01482089 56.56493128 -83.83314491 40.91799532 -76.6328125 27.453125 C-68.3980395 13.041424 -57.74413699 2.92407465 -42.8359375 -4.27734375 C-42.08054687 -4.65761719 -41.32515625 -5.03789063 -40.546875 -5.4296875 C-27.73008166 -10.79888471 -10.97678489 -7.89320044 0 0 Z " fill="#010101" transform="translate(385.8359375,858.27734375)"/>
<path d="M0 0 C12.13267214 -0.05837024 24.25151182 0.07328331 36.38061523 0.37231445 C39.09154999 0.43820609 41.80258175 0.49752937 44.51367188 0.55664062 C46.27084282 0.59856254 48.02800471 0.64086619 49.78515625 0.68359375 C50.97601585 0.70866249 50.97601585 0.70866249 52.19093323 0.73423767 C68.21115401 1.15352429 68.21115401 1.15352429 74 6 C78.19339251 10.57052845 80.71598486 15.9532954 83.5 21.4375 C87.58964874 29.38983995 91.75347086 37.28931129 96.0625 45.125 C100.1818459 52.6370283 104.25268683 60.17223538 108.25 67.75 C108.72832275 68.64992676 109.20664551 69.54985352 109.69946289 70.47705078 C110.13379639 71.30446777 110.56812988 72.13188477 111.015625 72.984375 C111.40008789 73.71366211 111.78455078 74.44294922 112.18066406 75.19433594 C113 77 113 77 113 79 C98.82100362 79.02349073 84.64201032 79.04099112 70.46299839 79.05181217 C63.87758772 79.05700835 57.29219021 79.06404602 50.70678711 79.07543945 C44.33956207 79.08638521 37.97234962 79.09230137 31.60511589 79.09487724 C29.18812805 79.09671058 26.77114082 79.10029016 24.3541584 79.10573006 C11.19712432 79.1341377 -1.87742606 79.0066849 -15 78 C-14.43936619 71.19633298 -13.45537701 64.60062569 -12.07421875 57.91796875 C-11.88535599 56.98310135 -11.69649323 56.04823395 -11.50190735 55.08503723 C-10.9016982 52.11823713 -10.29492123 49.15283104 -9.6875 46.1875 C-8.89780699 42.30638067 -8.11098364 38.42468252 -7.32421875 34.54296875 C-7.1306076 33.59195282 -6.93699646 32.64093689 -6.73751831 31.66110229 C-5.17228065 23.94260747 -3.69329057 16.20916403 -2.27165222 8.4629364 C-2.11860123 7.64154678 -1.96555023 6.82015717 -1.80786133 5.97387695 C-1.67535477 5.25214798 -1.54284821 4.53041901 -1.40632629 3.78681946 C-1 2 -1 2 0 0 Z " fill="#FDFDFD" transform="translate(682,637)"/>
<path d="M0 0 C1.47107208 0.00033989 1.47107208 0.00033989 2.97186279 0.00068665 C4.02303284 0.0161705 5.07420288 0.03165436 6.15722656 0.04760742 C7.23917297 0.05185226 8.32111938 0.05609711 9.43585205 0.06047058 C12.89010546 0.07725772 16.3437746 0.1149109 19.79785156 0.15307617 C22.14029105 0.16812292 24.48273969 0.18181134 26.82519531 0.1940918 C32.56627994 0.22716137 38.30702401 0.27736151 44.04785156 0.34057617 C42.45959028 4.51499383 40.36784236 7.98129952 37.86035156 11.65307617 C34.49615395 16.73847536 31.66622936 21.87259193 29.23535156 27.46557617 C28.97020752 28.07312744 28.70506348 28.68067871 28.43188477 29.30664062 C26.73758464 33.34182704 25.32267347 37.44750796 23.94750977 41.60180664 C23.41236504 43.21585892 23.41236504 43.21585892 22.8664093 44.86251831 C22.59628525 45.6802774 22.32616119 46.4980365 22.04785156 47.34057617 C13.70107466 45.32560863 5.35477249 43.30869006 -2.99096012 41.28940201 C-6.86785505 40.35143174 -10.74489929 39.41408906 -14.62231445 38.47827148 C-18.37691299 37.57206976 -22.13108046 36.664101 -25.88497734 35.75499725 C-27.30425802 35.41159174 -28.72368296 35.06878181 -30.14326668 34.72663116 C-39.785802 32.40200964 -49.37916893 29.93664205 -58.95214844 27.34057617 C-58.95214844 27.01057617 -58.95214844 26.68057617 -58.95214844 26.34057617 C-57.72584717 26.32599365 -56.4995459 26.31141113 -55.23608398 26.29638672 C-50.69037578 26.23845534 -46.14516563 26.16122237 -41.59985352 26.078125 C-39.63183673 26.04485131 -37.66372395 26.01682702 -35.69555664 25.99414062 C-32.86791031 25.9606394 -30.04114561 25.90832654 -27.21386719 25.85229492 C-26.33252609 25.845905 -25.451185 25.83951508 -24.5431366 25.83293152 C-23.31220024 25.80324028 -23.31220024 25.80324028 -22.05639648 25.77294922 C-21.33469772 25.76184616 -20.61299896 25.7507431 -19.86943054 25.73930359 C-17.40502474 25.22679364 -16.5166786 24.27360512 -14.95214844 22.34057617 C-14.07166135 20.28724798 -14.07166135 20.28724798 -13.48730469 17.99682617 C-13.24431641 17.16280273 -13.00132812 16.3287793 -12.75097656 15.46948242 C-12.26037425 13.71788902 -11.77338883 11.96527851 -11.29003906 10.21166992 C-11.04576172 9.37764648 -10.80148438 8.54362305 -10.54980469 7.68432617 C-10.338479 6.92313477 -10.12715332 6.16194336 -9.90942383 5.37768555 C-7.84035807 0.97465451 -4.622887 -0.03574397 0 0 Z " fill="#010101" transform="translate(253.9521484375,851.659423828125)"/>
<path d="M0 0 C3.99059487 2.58429828 5.83535941 6.03714575 7.25 10.5 C8.19004896 17.88609898 5.78516927 24.6321425 1.625 30.6875 C-2.37917071 35.70525779 -7.65926949 39.4697565 -13.75 41.5 C-18.41507623 41.8823833 -20.79127641 41.97936179 -25 39.875 C-28.88608403 36.51883652 -31.35818855 34.03395816 -32.16796875 28.796875 C-32.57188962 20.28178643 -30.40329003 14.11981579 -25.140625 7.46484375 C-18.45095359 0.23815744 -9.67425566 -4.62054002 0 0 Z " fill="#FDFDFD" transform="translate(364.75,883.5)"/>
<path d="M0 0 C3.45186161 2.9702065 5.38482608 5.52924616 6.15625 10.07421875 C6.25681098 19.48924013 3.801804 26.20011728 -2.5625 33.1875 C-7.3838624 37.62105716 -12.57453268 39.99307048 -19.0625 40.75 C-23.94478455 40.09276939 -26.29764668 38.4401148 -29.5625 34.8125 C-32.73348962 30.28251483 -33.12236871 25.68279443 -32.3125 20.3125 C-29.01546088 10.93236288 -23.79789826 3.83699731 -14.8125 -0.625 C-9.31429862 -2.29409685 -5.31504261 -2.70766322 0 0 Z " fill="#FCFCFC" transform="translate(717.3125,883.6875)"/>
<path d="M0 0 C2.8203125 0.4609375 2.8203125 0.4609375 6.125 1.375 C7.22070312 1.67148437 8.31640625 1.96796875 9.4453125 2.2734375 C10.28835938 2.51320313 11.13140625 2.75296875 12 3 C12 3.33 12 3.66 12 4 C4.41 4 -3.18 4 -11 4 C-11 3.67 -11 3.34 -11 3 C-10.37351562 2.95101562 -9.74703125 2.90203125 -9.1015625 2.8515625 C-8.28429687 2.77679687 -7.46703125 2.70203125 -6.625 2.625 C-5.81289063 2.55539062 -5.00078125 2.48578125 -4.1640625 2.4140625 C-1.79665809 2.17107412 -1.79665809 2.17107412 0 0 Z " fill="#DCDCDC" transform="translate(411,741)"/>
<path d="M0 0 C1.45212891 0.25716797 1.45212891 0.25716797 2.93359375 0.51953125 C5.5625 1.1875 5.5625 1.1875 8.5625 3.1875 C3.2825 3.1875 -1.9975 3.1875 -7.4375 3.1875 C-7.4375 2.1975 -7.4375 1.2075 -7.4375 0.1875 C-4.6728114 -1.1948443 -3.01543548 -0.55663417 0 0 Z " fill="#EAEAEA" transform="translate(355.4375,795.8125)"/>
<path d="M0 0 C0 0.33 0 0.66 0 1 C-4.29 1 -8.58 1 -13 1 C-13 0.34 -13 -0.32 -13 -1 C-13.66 -1.33 -14.32 -1.66 -15 -2 C-9.74237633 -3.75254122 -5.07098902 -1.81106751 0 0 Z " fill="#F4F4F4" transform="translate(405,617)"/>
<path d="M0 0 C4.95 0 9.9 0 15 0 C14.67 0.99 14.34 1.98 14 3 C4.58997722 2.03644647 4.58997722 2.03644647 0 1 C0 0.67 0 0.34 0 0 Z " fill="#171717" transform="translate(529,948)"/>
<path d="M0 0 C3.63 0 7.26 0 11 0 C10.01 0.33 9.02 0.66 8 1 C8 1.66 8 2.32 8 3 C5.36 2.34 2.72 1.68 0 1 C0 0.67 0 0.34 0 0 Z " fill="#1E1E1E" transform="translate(248,530)"/>
</svg>
